name ./resultDataOpenSim/trcMotMarkerGrf/sub10/grf-14-07.mot
datacolumns 19
datarows 25
range 1.53200000 1.62800000
endheader

                time	     ground_force_vx	     ground_force_vy	     ground_force_vz	     ground_force_px	     ground_force_py	     ground_force_pz	   l_ground_force_vx	   l_ground_force_vy	   l_ground_force_vz	   l_ground_force_px	   l_ground_force_py	   l_ground_force_pz	     ground_torque_x	     ground_torque_y	     ground_torque_z	   l_ground_torque_x	   l_ground_torque_y	   l_ground_torque_z	
          1.53200000	          6.62438590	        497.36859548	        -18.33781061	          0.78083729	          0.00000000	          0.01880659	          0.00000000	          0.00000000	          0.00000000	          0.00000000	          0.00000000	          0.00000000	          0.00000000	          2.79978648	          0.00000000	          0.00000000	          0.00000000	          0.00000000	
          1.53600000	          9.01636420	        501.99453481	        -19.34032408	          0.78019176	          0.00000000	          0.01884053	          0.00000000	          0.00000000	          0.00000000	          0.00000000	          0.00000000	          0.00000000	          0.00000000	          2.92542758	          0.00000000	          0.00000000	          0.00000000	          0.00000000	
          1.54000000	         12.20495430	        506.94496742	        -20.29089839	          0.77943772	          0.00000000	          0.01887773	          0.00000000	          0.00000000	          0.00000000	          0.00000000	          0.00000000	          0.00000000	          0.00000000	          3.04791156	          0.00000000	          0.00000000	          0.00000000	          0.00000000	
          1.54400000	         16.08859405	        512.21228587	        -21.17561240	          0.77864605	          0.00000000	          0.01891162	          0.00000000	          0.00000000	          0.00000000	          0.00000000	          0.00000000	          0.00000000	          0.00000000	          3.16366338	          0.00000000	          0.00000000	          0.00000000	          0.00000000	
          1.54800000	         20.37835736	        517.73554927	        -22.01979569	          0.77790860	          0.00000000	          0.01893497	          0.00000000	          0.00000000	          0.00000000	          0.00000000	          0.00000000	          0.00000000	          0.00000000	          3.27092986	          0.00000000	          0.00000000	          0.00000000	          0.00000000	
          1.55200000	         24.67274144	        523.42633379	        -22.86852197	          0.77731487	          0.00000000	          0.01894317	          0.00000000	          0.00000000	          0.00000000	          0.00000000	          0.00000000	          0.00000000	          0.00000000	          3.37093657	          0.00000000	          0.00000000	          0.00000000	          0.00000000	
          1.55600000	         28.55802955	        529.20781639	        -23.76487910	          0.77694169	          0.00000000	          0.01893380	          0.00000000	          0.00000000	          0.00000000	          0.00000000	          0.00000000	          0.00000000	          0.00000000	          3.46767948	          0.00000000	          0.00000000	          0.00000000	          0.00000000	
          1.56000000	         31.70591509	        535.03499457	        -24.73585772	          0.77684155	          0.00000000	          0.01890238	          0.00000000	          0.00000000	          0.00000000	          0.00000000	          0.00000000	          0.00000000	          0.00000000	          3.56598635	          0.00000000	          0.00000000	          0.00000000	          0.00000000	
          1.56400000	         33.94548891	        540.88202813	        -25.78808537	          0.77704540	          0.00000000	          0.01884248	          0.00000000	          0.00000000	          0.00000000	          0.00000000	          0.00000000	          0.00000000	          0.00000000	          3.66880858	          0.00000000	          0.00000000	          0.00000000	          0.00000000	
          1.56800000	         35.29647402	        546.71368071	        -26.90764381	          0.77756810	          0.00000000	          0.01875127	          0.00000000	          0.00000000	          0.00000000	          0.00000000	          0.00000000	          0.00000000	          0.00000000	          3.77538317	          0.00000000	          0.00000000	          0.00000000	          0.00000000	
          1.57200000	         35.96016883	        552.47210610	        -28.06073232	          0.77838547	          0.00000000	          0.01863117	          0.00000000	          0.00000000	          0.00000000	          0.00000000	          0.00000000	          0.00000000	          0.00000000	          3.88137618	          0.00000000	          0.00000000	          0.00000000	          0.00000000	
          1.57600000	         36.27084511	        558.09100539	        -29.19773563	          0.77942798	          0.00000000	          0.01848747	          0.00000000	          0.00000000	          0.00000000	          0.00000000	          0.00000000	          0.00000000	          0.00000000	          3.98080833	          0.00000000	          0.00000000	          0.00000000	          0.00000000	
          1.58000000	         36.61120612	        563.52413690	        -30.26290192	          0.78062098	          0.00000000	          0.01832511	          0.00000000	          0.00000000	          0.00000000	          0.00000000	          0.00000000	          0.00000000	          0.00000000	          4.06846306	          0.00000000	          0.00000000	          0.00000000	          0.00000000	
          1.58400000	         37.31047102	        568.76788651	        -31.21100915	          0.78190075	          0.00000000	          0.01815131	          0.00000000	          0.00000000	          0.00000000	          0.00000000	          0.00000000	          0.00000000	          0.00000000	          4.14138409	          0.00000000	          0.00000000	          0.00000000	          0.00000000	
          1.58800000	         38.56145293	        573.85414707	        -32.02590929	          0.78322849	          0.00000000	          0.01797346	          0.00000000	          0.00000000	          0.00000000	          0.00000000	          0.00000000	          0.00000000	          0.00000000	          4.19897598	          0.00000000	          0.00000000	          0.00000000	          0.00000000	
          1.59200000	         40.38675724	        578.81938405	        -32.73025939	          0.78459333	          0.00000000	          0.01779650	          0.00000000	          0.00000000	          0.00000000	          0.00000000	          0.00000000	          0.00000000	          0.00000000	          4.24231344	          0.00000000	          0.00000000	          0.00000000	          0.00000000	
          1.59600000	         42.65779694	        583.68573510	        -33.38146139	          0.78599138	          0.00000000	          0.01762398	          0.00000000	          0.00000000	          0.00000000	          0.00000000	          0.00000000	          0.00000000	          0.00000000	          4.27365131	          0.00000000	          0.00000000	          0.00000000	          0.00000000	
          1.60000000	         45.14774942	        588.46217419	        -34.05621156	          0.78743383	          0.00000000	          0.01745456	          0.00000000	          0.00000000	          0.00000000	          0.00000000	          0.00000000	          0.00000000	          0.00000000	          4.29656481	          0.00000000	          0.00000000	          0.00000000	          0.00000000	
          1.60400000	         47.59809170	        593.16095042	        -34.82805900	          0.78894159	          0.00000000	          0.01728358	          0.00000000	          0.00000000	          0.00000000	          0.00000000	          0.00000000	          0.00000000	          0.00000000	          4.31619778	          0.00000000	          0.00000000	          0.00000000	          0.00000000	
          1.60800000	         49.78359488	        597.82272202	        -35.74214534	          0.79053721	          0.00000000	          0.01710201	          0.00000000	          0.00000000	          0.00000000	          0.00000000	          0.00000000	          0.00000000	          0.00000000	          4.33869701	          0.00000000	          0.00000000	          0.00000000	          0.00000000	
          1.61200000	         51.56571107	        602.52370161	        -36.79699964	          0.79226034	          0.00000000	          0.01690196	          0.00000000	          0.00000000	          0.00000000	          0.00000000	          0.00000000	          0.00000000	          0.00000000	          4.36951179	          0.00000000	          0.00000000	          0.00000000	          0.00000000	
          1.61600000	         52.92469555	        607.35887878	        -37.94427486	          0.79411873	          0.00000000	          0.01668012	          0.00000000	          0.00000000	          0.00000000	          0.00000000	          0.00000000	          0.00000000	          0.00000000	          4.41128948	          0.00000000	          0.00000000	          0.00000000	          0.00000000	
          1.62000000	         53.95704315	        612.42271873	        -39.10335018	          0.79608425	          0.00000000	          0.01643047	          0.00000000	          0.00000000	          0.00000000	          0.00000000	          0.00000000	          0.00000000	          0.00000000	          4.46263852	          0.00000000	          0.00000000	          0.00000000	          0.00000000	
          1.62400000	         54.83686829	        617.80182330	        -40.17883642	          0.79813736	          0.00000000	          0.01614767	          0.00000000	          0.00000000	          0.00000000	          0.00000000	          0.00000000	          0.00000000	          0.00000000	          4.51859981	          0.00000000	          0.00000000	          0.00000000	          0.00000000	
          1.62800000	         55.75654678	        623.57716895	        -41.07418216	          0.80025948	          0.00000000	          0.01583072	          0.00000000	          0.00000000	          0.00000000	          0.00000000	          0.00000000	          0.00000000	          0.00000000	          4.57260509	          0.00000000	          0.00000000	          0.00000000	          0.00000000	
